<svg xmlns="http://www.w3.org/2000/svg" width="1536" height="864" viewBox="0 0 1536 864">
<rect width="1536" height="864" fill="#08111f"/><rect x="0" y="0" width="220" height="864" fill="#0c1728"/><text x="28" y="44" fill="#fff" font-size="20" font-family="Arial" font-weight="700">Insider &amp; Corporate</text><text x="28" y="68" fill="#fff" font-size="20" font-family="Arial" font-weight="700">Event Tracker</text><text x="28" y="92" fill="#8ea0b8" font-size="12" font-family="Arial">NSE • BSE • India</text>
<rect x="14" y="118" width="192" height="42" rx="7" fill="#17365f"/><text x="34" y="145" fill="#fff" font-size="14" font-family="Arial">Overview</text><text x="28" y="195" fill="#aab7c9" font-size="13" font-family="Arial">Insider Trading</text><text x="28" y="232" fill="#aab7c9" font-size="13" font-family="Arial">Bulk Deals</text><text x="28" y="269" fill="#aab7c9" font-size="13" font-family="Arial">Block Deals</text><text x="28" y="306" fill="#aab7c9" font-size="13" font-family="Arial">Rights Issues</text><text x="28" y="343" fill="#aab7c9" font-size="13" font-family="Arial">Preferential Issues</text><line x1="20" y1="375" x2="200" y2="375" stroke="#23354b"/><text x="28" y="412" fill="#aab7c9" font-size="13" font-family="Arial">Data Quality</text><text x="28" y="449" fill="#aab7c9" font-size="13" font-family="Arial">Validation &amp; Evidence</text><text x="28" y="486" fill="#aab7c9" font-size="13" font-family="Arial">Downloads</text>
<text x="250" y="40" fill="#fff" font-size="15" font-family="Arial">NSE</text><rect x="244" y="52" width="60" height="30" rx="6" fill="#1557d6"/><text x="263" y="73" fill="#fff" font-size="12" font-family="Arial">NSE</text><rect x="306" y="52" width="60" height="30" rx="6" fill="#111d2d"/><text x="325" y="73" fill="#fff" font-size="12" font-family="Arial">BSE</text><rect x="382" y="52" width="270" height="30" rx="6" fill="#111d2d"/><text x="400" y="72" fill="#c6d0df" font-size="12" font-family="Arial">02 Jun 2026 – 31 Aug 2026 (90D)</text><rect x="670" y="52" width="310" height="30" rx="6" fill="#111d2d"/><text x="688" y="72" fill="#7f90a8" font-size="12" font-family="Arial">Search company, person, promoter, ISIN…</text>
<g font-family="Arial"><rect x="244" y="104" width="196" height="108" rx="10" fill="#101d2e" stroke="#1c3048"/><text x="264" y="132" fill="#8fa0b7" font-size="11">INSIDER TRADING</text><text x="264" y="169" fill="#fff" font-size="26" font-weight="700">4,781</text><text x="264" y="193" fill="#35d46a" font-size="11">▲ 18.35% • Verified</text><rect x="452" y="104" width="196" height="108" rx="10" fill="#101d2e" stroke="#1c3048"/><text x="472" y="132" fill="#8fa0b7" font-size="11">BULK DEALS</text><text x="472" y="169" fill="#fff" font-size="26" font-weight="700">2,146</text><text x="472" y="193" fill="#35d46a" font-size="11">▲ 7.42% • Verified</text><rect x="660" y="104" width="196" height="108" rx="10" fill="#101d2e" stroke="#1c3048"/><text x="680" y="132" fill="#8fa0b7" font-size="11">BLOCK DEALS</text><text x="680" y="169" fill="#fff" font-size="26" font-weight="700">312</text><text x="680" y="193" fill="#35d46a" font-size="11">▲ 11.11% • Verified</text><rect x="868" y="104" width="196" height="108" rx="10" fill="#101d2e" stroke="#1c3048"/><text x="888" y="132" fill="#8fa0b7" font-size="11">RIGHTS ISSUES</text><text x="888" y="169" fill="#fff" font-size="26" font-weight="700">148</text><text x="888" y="193" fill="#35d46a" font-size="11">▲ 2.78% • Verified</text><rect x="1076" y="104" width="196" height="108" rx="10" fill="#101d2e" stroke="#1c3048"/><text x="1096" y="132" fill="#8fa0b7" font-size="11">PREFERENTIAL</text><text x="1096" y="169" fill="#fff" font-size="26" font-weight="700">96</text><text x="1096" y="193" fill="#35d46a" font-size="11">▲ 9.09% • Verified</text><rect x="1284" y="104" width="228" height="108" rx="10" fill="#101d2e" stroke="#1c3048"/><text x="1304" y="132" fill="#8fa0b7" font-size="11">QUALITY SCORE</text><text x="1304" y="169" fill="#fff" font-size="26" font-weight="700">98.6</text><text x="1395" y="169" fill="#8fa0b7" font-size="14">/100</text><text x="1304" y="193" fill="#35d46a" font-size="11">Excellent</text>
<rect x="244" y="230" width="1015" height="300" rx="10" fill="#0e1a2a" stroke="#1c3048"/><text x="264" y="258" fill="#fff" font-size="14" font-weight="700">INSIDER TRADING</text><text x="265" y="290" fill="#c6d0df" font-size="12">Promoter Acquisition</text><text x="420" y="290" fill="#7f90a8" font-size="12">Promoter Disposal</text><text x="570" y="290" fill="#7f90a8" font-size="12">Other Transactions</text><rect x="264" y="308" width="150" height="30" rx="5" fill="#13243a"/><text x="278" y="328" fill="#9aabc1" font-size="11">Company • All</text><rect x="422" y="308" width="150" height="30" rx="5" fill="#13243a"/><text x="436" y="328" fill="#9aabc1" font-size="11">P/E Category • All</text><rect x="580" y="308" width="150" height="30" rx="5" fill="#13243a"/><text x="594" y="328" fill="#9aabc1" font-size="11">Mode • All</text><rect x="738" y="308" width="150" height="30" rx="5" fill="#1557d6"/><text x="752" y="328" fill="#fff" font-size="11">Advanced Filters</text><line x1="264" y1="354" x2="1240" y2="354" stroke="#25384f"/><text x="268" y="376" fill="#8091a8" font-size="10">DATE</text><text x="340" y="376" fill="#8091a8" font-size="10">COMPANY</text><text x="475" y="376" fill="#8091a8" font-size="10">PERSON / ENTITY</text><text x="630" y="376" fill="#8091a8" font-size="10">P/E</text><text x="700" y="376" fill="#8091a8" font-size="10">TYPE</text><text x="790" y="376" fill="#8091a8" font-size="10">BUY / SELL</text><text x="890" y="376" fill="#8091a8" font-size="10">QTY</text><text x="980" y="376" fill="#8091a8" font-size="10">VALUE</text><text x="1090" y="376" fill="#8091a8" font-size="10">SOURCE</text><text x="1170" y="376" fill="#8091a8" font-size="10">STATUS</text><g fill="#d8e1ed" font-size="11"><text x="268" y="405">31 Aug 2026</text><text x="340" y="405">TATA MOTORS LTD</text><text x="475" y="405">RATAN TATA</text><text x="630" y="405">Promoter</text><text x="700" y="405" fill="#35d46a">Acquisition</text><text x="790" y="405" fill="#35d46a">BUY</text><text x="890" y="405">15,00,000</text><text x="980" y="405">₹10.20 Cr</text><text x="1090" y="405">NSE</text><text x="1170" y="405" fill="#35d46a">Verified</text><text x="268" y="437">30 Aug 2026</text><text x="340" y="437">RELIANCE IND LTD</text><text x="475" y="437">MUKESH AMBANI</text><text x="630" y="437">Promoter</text><text x="700" y="437" fill="#35d46a">Acquisition</text><text x="790" y="437" fill="#35d46a">BUY</text><text x="890" y="437">1,00,000</text><text x="980" y="437">₹2.72 Cr</text><text x="1090" y="437">NSE</text><text x="1170" y="437" fill="#f0bd38">Pending</text></g><line x1="264" y1="454" x2="1240" y2="454" stroke="#25384f"/><text x="268" y="484" fill="#8fa0b7" font-size="11">Rows support evidence drill-down • native source fields • provenance • duplicate/match status</text>
<rect x="1280" y="230" width="232" height="300" rx="10" fill="#0e1a2a" stroke="#1c3048"/><text x="1300" y="258" fill="#fff" font-size="14" font-weight="700">DATA QUALITY</text><text x="1300" y="286" fill="#8fa0b7" font-size="11">Requested</text><text x="1300" y="304" fill="#d8e1ed" font-size="11">02 Jun – 31 Aug (90D)</text><text x="1300" y="334" fill="#8fa0b7" font-size="11">Actual</text><text x="1300" y="352" fill="#d8e1ed" font-size="11">02 Jun – 31 Aug (90D)</text><text x="1300" y="382" fill="#8fa0b7" font-size="11">Coverage</text><text x="1450" y="382" fill="#35d46a" font-size="12">100%</text><rect x="1300" y="394" width="190" height="7" rx="3" fill="#35d46a"/><text x="1300" y="430" fill="#8fa0b7" font-size="11">Completeness</text><text x="1450" y="430" fill="#35d46a" font-size="11">98.7%</text><text x="1300" y="455" fill="#8fa0b7" font-size="11">Accuracy</text><text x="1450" y="455" fill="#35d46a" font-size="11">98.3%</text><text x="1300" y="480" fill="#8fa0b7" font-size="11">Consistency</text><text x="1450" y="480" fill="#35d46a" font-size="11">98.9%</text>
<rect x="244" y="550" width="500" height="270" rx="10" fill="#0e1a2a" stroke="#1c3048"/><text x="264" y="578" fill="#fff" font-size="14" font-weight="700">TREND OVER TIME</text><polyline points="270,750 320,710 370,730 420,680 470,700 520,650 570,690 620,620 670,670 720,640" fill="none" stroke="#38d46a" stroke-width="3"/><polyline points="270,780 320,760 370,770 420,735 470,750 520,720 570,745 620,700 670,730 720,710" fill="none" stroke="#f15b5b" stroke-width="3"/><text x="270" y="805" fill="#7f90a8" font-size="10">02 Jun</text><text x="680" y="805" fill="#7f90a8" font-size="10">31 Aug</text><rect x="760" y="550" width="752" height="270" rx="10" fill="#0e1a2a" stroke="#1c3048"/><text x="780" y="578" fill="#fff" font-size="14" font-weight="700">SOURCE &amp; VALIDATION EVIDENCE</text><text x="780" y="610" fill="#8fa0b7" font-size="11">NSE Insider</text><text x="930" y="610" fill="#d8e1ed" font-size="11">API • last fetch 31 Aug 2026 07:15 IST</text><text x="1360" y="610" fill="#35d46a" font-size="11">VERIFIED</text><text x="780" y="646" fill="#8fa0b7" font-size="11">NSE Bulk</text><text x="930" y="646" fill="#d8e1ed" font-size="11">API • historical range checked</text><text x="1360" y="646" fill="#35d46a" font-size="11">VERIFIED</text><text x="780" y="682" fill="#8fa0b7" font-size="11">BSE Insider</text><text x="930" y="682" fill="#d8e1ed" font-size="11">First-party source comparison</text><text x="1360" y="682" fill="#f0bd38" font-size="11">PENDING</text><text x="780" y="730" fill="#8fa0b7" font-size="11">Every status links to record-level evidence; no UI-only trust state.</text></g></svg>